<svg height="438pt" viewBox="-32 0 438 438.40158" width="438pt" xmlns="http://www.w3.org/2000/svg"><path d="m275.496094 55.753906h9.078125c3.3125 0 6-2.6875 6-6 0-3.316406-2.6875-6-6-6h-9.078125c-3.316406 0-6 2.683594-6 6 0 3.3125 2.683594 6 6 6zm0 0"/><path d="m244.847656 277.59375c-8.683594 0-15.722656 7.039062-15.722656 15.722656s7.039062 15.722656 15.722656 15.722656 15.722656-7.039062 15.722656-15.722656c-.011718-8.679687-7.042968-15.714844-15.722656-15.722656zm0 19.445312c-2.058594 0-3.722656-1.667968-3.722656-3.722656 0-2.058594 1.667969-3.726562 3.722656-3.722656 2.054688 0 3.722656 1.664062 3.722656 3.722656-.003906 2.054688-1.667968 3.71875-3.722656 3.722656zm0 0"/><path d="m360.363281 208.253906c7.886719-5.667968 12.402344-14.914062 12.023438-24.617187-.375-9.707031-5.597657-18.574219-13.902344-23.609375 10.125-4.976563 16.433594-15.382813 16.15625-26.660156-.277344-11.277344-7.085937-21.367188-17.441406-25.839844 12.339843-6.828125 17.957031-21.558594 13.296875-34.867188-4.660156-13.3125-18.238282-21.320312-32.140625-18.960937v-25.820313c-.019531-15.390625-12.488281-27.863281-27.878907-27.878906h-131.265624c-15.386719.0195312-27.859376 12.488281-27.875 27.878906v89.179688l-81.882813 81.785156c-16.191406 16.058594-22.859375 39.386719-17.609375 61.578125l.140625.601563c2.183594 9.128906-.539063 18.734374-7.183594 25.363281-16.984375 16.960937-44.601562 44.574219-44.601562 44.574219l8.488281 8.488281s27.609375-27.613281 44.59375-44.570313c9.59375-9.554687 13.53125-23.410156 10.386719-36.578125l-.136719-.601562c-4.296875-18.152344 1.15625-37.230469 14.398438-50.367188l73.40625-73.316406v47.488281l-40.359376 31.957032c-2.585937 2.0625-3.015624 5.824218-.964843 8.414062 2.050781 2.59375 5.8125 3.035156 8.410156.992188l44.53125-35.257813h.382813v-.300781l55.777343-44.167969 3.941407 3.941406c10.445312 10.449219 10.445312 27.386719 0 37.835938l-39.164063 39.164062c-5.648437 5.648438-9.023437 13.175781-9.476563 21.148438-.007812.117187-.011718.320312-.011718.433593.070312 7.183594 1.691406 14.265626 4.753906 20.761719.839844 1.929688 1.433594 3.957031 1.765625 6.039063v.597656h.101563c.542968 3.75.710937 7.542969.5 11.324219-.945313 19.15625-9.050782 37.257812-22.710938 50.71875-11.671875 11.734375-27.550781 18.3125-44.101562 18.265625h-.507813c-3.3125 0-6 2.6875-6 6 0 3.316406 2.6875 6 6 6h.507813c19.734374.054687 38.671874-7.789063 52.585937-21.78125 5.398437-5.398438 10.097656-11.449219 13.988281-18.019532h86.222656l-39.03125 55.550782c-13.535156 19.191406-39.632812 24.601562-59.683593 12.378906-10.730469-6.566406-26.101563-4.742188-35 4.152344l-30.453125 30.449218c-1.550782 1.507813-2.167969 3.734376-1.617188 5.828126.550782 2.089843 2.183594 3.722656 4.277344 4.273437 2.089844.550781 4.316406-.066406 5.824219-1.617187l30.453125-30.453126c4.890625-4.890624 14.351562-6.011718 20.25-2.398437 25.457031 15.515625 58.585937 8.644531 75.765625-15.71875l43.878906-62.445313h28.304687c15.390626-.015624 27.859376-12.488281 27.878907-27.875v-30.730468c3.964843-.363282 7.8125-1.542969 11.296875-3.472656l10.328125-4.558594.089843-.039063c.15625-.074219.316407-.15625.46875-.242187 9.085938-5.152344 14.683594-14.804688 14.648438-25.25-.035156-10.445313-5.703125-20.058594-14.824219-25.148438zm-10.316406-7.882812-21.132813 8.890625c-8.621093 3.628906-18.546874-.421875-22.171874-9.039063-3.625-8.617187.421874-18.542968 9.039062-22.171875l21.136719-8.890625c8.617187-3.625 18.546875.421875 22.171875 9.039063 3.625 8.621093-.421875 18.546875-9.042969 22.171875zm11.273437-72.859375c3.625 8.617187-.421874 18.542969-9.042968 22.167969l-31.699219 13.339843c-8.617187 3.625-18.542969-.425781-22.171875-9.042969-3.613281-8.617187.429688-18.535156 9.042969-22.171874l31.699219-13.335938c8.617187-3.625 18.542968.421875 22.167968 9.039062zm-11.738281-60.96875c6.34375 2.585937 10.5 8.738281 10.539063 15.585937.039062 6.84375-4.050782 13.042969-10.363282 15.695313l-42.273437 17.785156c-8.617187 3.617187-18.535156-.425781-22.171875-9.039063-3.625-8.617187.421875-18.542968 9.039062-22.167968l42.273438-17.785156c4.136719-1.753907 8.800781-1.78125 12.957031-.074219zm-157.203125 166.027343 39.164063-39.164062c15.132812-15.132812 15.132812-39.667969 0-54.800781l-7.71875-7.71875c-2.152344-2.152344-5.578125-2.351563-7.96875-.460938l-52.515625 41.582031v-116.253906h89.042968c3.3125 0 6-2.6875 6-6 0-3.316406-2.6875-6-6-6h-89.042968v-15.875c.011718-8.765625 7.109375-15.863281 15.871094-15.878906h131.265624c8.761719.011719 15.863282 7.113281 15.878907 15.878906v15.875h-18.308594c-3.316406 0-6 2.683594-6 6 0 3.3125 2.683594 6 6 6h18.308594v2.164063l-36.652344 15.421875c-14.730469 6.191406-21.648437 23.15625-15.449219 37.882812 3.375 8.023438 10.1875 14.097656 18.542969 16.53125-7.710937 8.332032-9.847656 20.402344-5.457031 30.875 2.738281 6.554688 7.808594 11.863282 14.230468 14.898438-6.6875 6.902344-9.511718 16.671875-7.539062 26.078125 1.976562 9.402343 8.492188 17.210937 17.390625 20.839843.351563.144532.707031.277344 1.066406.40625-9.476562 12.648438-7.035156 30.5625 5.480469 40.210938h-128.0625c-2.226562-4.800781-3.421875-10.015625-3.507812-15.304688.328124-4.976562 2.453124-9.660156 5.980468-13.1875zm118.101563 81h-123.242188c3.703125-9.125 5.820313-18.816406 6.261719-28.65625.195312-3.953124.066406-7.914062-.390625-11.847656h133.246094v24.628906c-.015625 8.761719-7.117188 15.863282-15.878907 15.875zm44.367187-65.488281-10.300781 4.546875c-.183594.082032-.363281.171875-.539063.273438-8.082031 4.5625-18.332031 1.769531-22.980468-6.265625-4.648438-8.035157-1.960938-18.316407 6.027344-23.046875l10.300781-4.542969c.183593-.082031.363281-.171875.539062-.273437 8.082031-4.574219 18.339844-1.78125 22.992188 6.257812 4.648437 8.039062 1.957031 18.324219-6.039063 23.050781zm0 0"/></svg>