<svg id="Capa_1" enable-background="new 0 0 512.02 512.02" height="512" viewBox="0 0 512.02 512.02" width="512" xmlns="http://www.w3.org/2000/svg"><g><g id="Page-1_4_"><g id="_x30_05---Window" transform="translate(-1)"><path id="Shape_44_" d="m26.61 426.676h148.326l-17.066 34.134h-28.86c-14.138 0-25.6 11.462-25.6 25.6s11.462 25.6 25.6 25.6h256c14.138 0 25.6-11.462 25.6-25.6s-11.462-25.6-25.6-25.6h-28.86l-17.067-34.133h148.327c14.551-.464 25.993-12.6 25.6-27.153v-372.361c.393-14.554-11.049-26.689-25.6-27.153h-460.8c-14.551.464-25.993 12.6-25.6 27.153v372.361c-.393 14.553 11.048 26.688 25.6 27.152zm366.933 59.734c0 4.713-3.82 8.533-8.533 8.533h-256c-4.713 0-8.533-3.821-8.533-8.533s3.821-8.533 8.533-8.533h256c4.713-.001 8.533 3.82 8.533 8.533zm-56.473-25.6h-160.12l17.067-34.133h125.986zm150.34-51.2h-460.8c-5.091-.526-8.858-4.979-8.533-10.086v-24.047h477.867v24.047c.324 5.107-3.443 9.56-8.534 10.086zm-460.8-392.534h460.8c5.091.526 8.858 4.979 8.533 10.086v331.248h-477.867v-331.247c-.324-5.108 3.443-9.561 8.534-10.087z"/><path id="Shape_43_" d="m77.81 341.343h307.2c14.138 0 25.6-11.462 25.6-25.6v-12.331c9.552 6.093 22.057 4.723 30.063-3.294l14.046-14.037c9.448-9.453 9.448-24.774 0-34.227l-1.98-1.98c-2.781-2.791-2.781-7.304 0-10.095 6.103-6.101 8.495-14.99 6.279-23.329-2.216-8.34-8.705-14.869-17.031-17.136l-31.386-8.533v-131.038c0-14.138-11.462-25.6-25.6-25.6h-307.191c-14.138 0-25.6 11.462-25.6 25.6v256c0 14.139 11.461 25.6 25.6 25.6zm364.715-120.508c.681 2.459-.028 5.093-1.852 6.878-9.423 9.46-9.423 24.759 0 34.219l1.98 1.98c1.339 1.337 2.092 3.151 2.092 5.043s-.753 3.707-2.092 5.043l-14.046 14.046c-1.337 1.342-3.153 2.096-5.047 2.096s-3.71-.754-5.047-2.096l-1.98-1.971c-4.536-4.541-10.691-7.092-17.109-7.092s-12.573 2.551-17.109 7.092c-1.797 1.809-4.423 2.52-6.888 1.867s-4.393-2.572-5.059-5.033l-21.197-77.884c-.79-2.946.051-6.089 2.208-8.246s5.3-2.998 8.246-2.208l77.884 21.239c2.459.642 4.379 2.566 5.016 5.027zm-78.413-42.76c-8.864-2.419-18.345.098-24.842 6.595s-9.014 15.978-6.595 24.842l21.239 77.884c2.198 8.143 8.495 14.543 16.601 16.873s16.84.251 23.027-5.481v16.956c0 4.713-3.82 8.533-8.533 8.533h-307.199c-4.713 0-8.533-3.82-8.533-8.533v-196.268h324.267v66.628zm-286.302-126.865h307.2c4.713 0 8.533 3.821 8.533 8.533v42.667h-324.267v-42.667c0-4.713 3.821-8.533 8.534-8.533z"/><circle id="Oval" cx="94.876" cy="76.81" r="8.533"/><circle id="Oval_1_" cx="129.01" cy="76.81" r="8.533"/><circle id="Oval_2_" cx="163.143" cy="76.81" r="8.533"/></g></g></g></svg>