<?xml version="1.0"?>
<svg xmlns="http://www.w3.org/2000/svg" xmlns:xlink="http://www.w3.org/1999/xlink" xmlns:svgjs="http://svgjs.com/svgjs" version="1.1" width="512" height="512" x="0" y="0" viewBox="0 0 575.873 575.873" style="enable-background:new 0 0 512 512" xml:space="preserve"><g>
<g xmlns="http://www.w3.org/2000/svg">
	<g>
		<path d="M408.567,0H167.325c-26.326,0-47.746,21.42-47.746,47.746v459.851c0,30.619,13.148,50.021,35.974,53.225l68.573,12.212    c22.348,1.902,41.233,2.84,57.738,2.84c24.059,0,39.494-1.922,55.912-3.978c6.578-0.823,13.225-1.646,20.914-2.391l61.352-8.636    c23.037-3.241,36.252-22.653,36.252-53.272V47.755C456.304,21.43,434.894,0,408.567,0z M441.233,507.597    c0,13.101-3.021,35.486-23.275,38.336l-61.027,8.606c-7.518,0.727-14.307,1.578-21.066,2.419    c-15.865,1.979-30.859,3.845-53.99,3.845c-15.969,0-34.282-0.89-55.769-2.688l-68.171-12.183    c-20.253-2.85-23.275-25.235-23.275-38.336V47.755c0-18.016,14.66-32.666,32.666-32.666h241.243    c18.006,0,32.666,14.65,32.666,32.666V507.597L441.233,507.597z" fill="#ffffff" data-original="#000000" style=""/>
		<path d="M252.116,43.577c0,1.979,1.606,3.586,3.586,3.586h69.52c1.979,0,3.586-1.607,3.586-3.586c0-1.979-1.607-3.586-3.586-3.586    h-69.52C253.722,39.991,252.116,41.597,252.116,43.577z" fill="#ffffff" data-original="#000000" style=""/>
		<path d="M290.394,22.596c-108.458,0.803-145.493,11.963-147.023,12.431c-1.501,0.469-2.524,1.855-2.524,3.424v475.132    c0,1.75,1.253,3.241,2.974,3.528c0.717,0.134,72.273,12.346,144.097,13.139l6.273,0.039c69.787,0,138.914-13.044,139.604-13.178    c1.691-0.315,2.916-1.798,2.916-3.528l-0.812-475.142c0-1.454-0.898-2.773-2.258-3.328c-1.281-0.507-32.568-12.556-133.568-12.556    L290.394,22.596z M429.538,510.6c-13.799,2.448-74.311,12.518-135.338,12.518l-6.197-0.039    c-62.969-0.697-125.766-10.251-139.985-12.546V41.214c9.974-2.438,50.643-10.767,142.424-11.446l9.629-0.038    c84.59,0,119.924,8.692,128.654,11.322L429.538,510.6z" fill="#ffffff" data-original="#000000" style=""/>
		<path d="M155.792,96.313v345.942c0,1.979,1.606,3.586,3.586,3.586h258.828c1.98,0,3.586-1.606,3.586-3.586V96.313    c0-1.979-1.605-3.586-3.586-3.586H159.378C157.399,92.728,155.792,94.334,155.792,96.313z M162.964,99.899H414.62V438.67H162.964    V99.899z" fill="#ffffff" data-original="#000000" style=""/>
		<path d="M204.6,487.975h-15.367v-1.798l-5.164,2.983l5.164,2.983v-1.769h14.172v6.406h-11.791c-0.66,0-1.195,0.536-1.195,1.195    c0,0.66,0.535,1.195,1.195,1.195H204.6c0.66,0,1.195-0.535,1.195-1.195v-8.797C205.795,488.5,205.259,487.975,204.6,487.975z" fill="#ffffff" data-original="#000000" style=""/>
		<path d="M272.312,488.013l-15.08-3.768c-0.22-0.067-0.469-0.048-0.688,0.028l-14.229,5.021c-0.622,0.22-0.947,0.908-0.727,1.53    c0.172,0.487,0.631,0.794,1.128,0.794c0.134,0,0.268-0.02,0.392-0.067l2.18-0.765v5.488c0,0.66,0.536,1.195,1.195,1.195h20.942    c0.66,0,1.195-0.535,1.195-1.195v-6.731l3.118,0.774c0.679,0.201,1.291-0.229,1.444-0.87    C273.344,488.816,272.952,488.166,272.312,488.013z M266.229,489.17v5.919h-18.551v-5.145l9.333-3.289l9.295,2.313    C266.287,489.046,266.229,489.094,266.229,489.17z" fill="#ffffff" data-original="#000000" style=""/>
		<path d="M333.177,484.207h-20.932c-0.66,0-1.195,0.535-1.195,1.195s0.535,1.195,1.195,1.195h20.932    c0.66,0,1.195-0.535,1.195-1.195S333.837,484.207,333.177,484.207z" fill="#ffffff" data-original="#000000" style=""/>
		<path d="M333.177,489.228h-20.932c-0.66,0-1.195,0.535-1.195,1.195c0,0.659,0.535,1.195,1.195,1.195h20.932    c0.66,0,1.195-0.536,1.195-1.195C334.372,489.763,333.837,489.228,333.177,489.228z" fill="#ffffff" data-original="#000000" style=""/>
		<path d="M333.177,494.257h-20.932c-0.66,0-1.195,0.536-1.195,1.195c0,0.66,0.535,1.195,1.195,1.195h20.932    c0.66,0,1.195-0.535,1.195-1.195C334.372,494.793,333.837,494.257,333.177,494.257z" fill="#ffffff" data-original="#000000" style=""/>
		<path d="M397.044,486.722h-22.615c-0.658,0-1.195,0.536-1.195,1.195v7.535c0,0.66,0.537,1.195,1.195,1.195h22.615    c0.66,0,1.195-0.535,1.195-1.195v-7.535C398.239,487.248,397.704,486.722,397.044,486.722z M395.849,494.257h-20.225v-5.145    h20.225V494.257z" fill="#ffffff" data-original="#000000" style=""/>
		<path d="M400.181,483.155h-21.984c-0.658,0-1.195,0.535-1.195,1.195c0,0.659,0.537,1.195,1.195,1.195h20.789v5.929    c0,0.659,0.535,1.195,1.195,1.195s1.195-0.536,1.195-1.195v-7.124C401.376,483.681,400.841,483.155,400.181,483.155z" fill="#ffffff" data-original="#000000" style=""/>
	</g>
</g>
<g xmlns="http://www.w3.org/2000/svg">
</g>
<g xmlns="http://www.w3.org/2000/svg">
</g>
<g xmlns="http://www.w3.org/2000/svg">
</g>
<g xmlns="http://www.w3.org/2000/svg">
</g>
<g xmlns="http://www.w3.org/2000/svg">
</g>
<g xmlns="http://www.w3.org/2000/svg">
</g>
<g xmlns="http://www.w3.org/2000/svg">
</g>
<g xmlns="http://www.w3.org/2000/svg">
</g>
<g xmlns="http://www.w3.org/2000/svg">
</g>
<g xmlns="http://www.w3.org/2000/svg">
</g>
<g xmlns="http://www.w3.org/2000/svg">
</g>
<g xmlns="http://www.w3.org/2000/svg">
</g>
<g xmlns="http://www.w3.org/2000/svg">
</g>
<g xmlns="http://www.w3.org/2000/svg">
</g>
<g xmlns="http://www.w3.org/2000/svg">
</g>
</g></svg>
